<?xml version="1.0" standalone="no"?>
<!DOCTYPE svg PUBLIC "-//W3C//DTD SVG 20010904//EN"
 "http://www.w3.org/TR/2001/REC-SVG-20010904/DTD/svg10.dtd">
<svg version="1.0" xmlns="http://www.w3.org/2000/svg"
 width="400.000000pt" height="400.000000pt" viewBox="0 0 400.000000 400.000000"
 preserveAspectRatio="xMidYMid meet">
<metadata>
Created by potrace 1.14, written by Peter Selinger 2001-2017
</metadata>
<g transform="translate(0.000000,400.000000) scale(0.100000,-0.100000)"
fill="#000000" stroke="none">
<path d="M1110 3990 c-9 -6 -10 -10 -3 -10 6 0 15 5 18 10 8 12 4 12 -15 0z"/>
<path d="M2907 3959 c7 -7 15 -10 18 -7 3 3 -2 9 -12 12 -14 6 -15 5 -6 -5z"/>
<path d="M2964 3927 c139 -90 169 -108 172 -104 7 7 -168 118 -184 116 -4 0 1
-6 12 -12z"/>
<path d="M930 3895 c-19 -13 -40 -29 -47 -35 -7 -5 -24 -15 -38 -22 -14 -6
-25 -15 -25 -20 0 -8 92 47 139 83 34 27 12 22 -29 -6z"/>
<path d="M2563 3840 c-72 -16 -155 -118 -246 -300 -34 -69 -72 -148 -84 -177
l-21 -52 -38 11 c-61 18 -191 13 -254 -9 -50 -17 -60 -17 -93 -4 -34 12 -43
25 -92 122 -128 257 -265 399 -386 399 -82 0 -184 -105 -279 -291 -67 -130
-169 -385 -235 -584 -29 -87 -58 -161 -64 -163 -6 -2 -23 3 -36 12 -13 9 -29
16 -35 16 -18 0 -7 -173 16 -266 5 -19 2 -24 -12 -24 -11 0 -39 -9 -63 -20
-42 -20 -43 -21 -27 -43 40 -54 69 -139 80 -236 4 -36 1 -50 -23 -85 -97 -141
-200 -388 -215 -516 -14 -120 -29 -185 -37 -165 -6 16 -8 17 -8 3 -1 -9 3 -19
8 -23 6 -3 6 -17 -1 -36 -8 -22 -13 -27 -19 -18 -4 7 -3 19 2 26 12 14 2 36
-12 28 -5 -4 -9 -16 -10 -28 0 -15 -2 -17 -6 -7 -20 52 -53 45 -53 -11 l0 -39
-80 0 c-47 0 -80 4 -80 10 0 6 18 10 40 10 38 0 40 2 40 31 l0 31 -80 -4 -79
-3 -4 40 c-2 22 -3 5 -2 -38 1 -75 -6 -100 -21 -76 -4 8 -3 9 4 5 7 -4 12 -2
12 3 0 6 -5 11 -11 11 -7 0 -9 10 -4 28 6 26 6 26 -11 9 -17 -16 -19 -16 -31
5 -11 20 -13 13 -10 -55 1 -42 4 -72 6 -66 2 7 10 -6 17 -28 10 -30 11 -48 4
-65 -9 -21 -10 -20 -5 8 4 20 1 35 -9 43 -12 11 -14 -68 -16 -623 l-1 -636
2001 0 2001 0 -1 675 c-1 405 -5 675 -11 675 -5 0 -9 7 -9 15 0 8 3 15 8 15 4
0 8 33 9 73 l2 72 -14 -40 c-8 -22 -19 -49 -24 -60 -25 -54 -43 -116 -38 -130
4 -9 1 -15 -9 -15 -8 0 -20 -14 -26 -30 -13 -39 -48 -61 -48 -30 0 18 -6 20
-55 20 -48 0 -55 3 -55 19 0 11 6 22 13 24 6 3 -6 3 -28 0 -37 -6 -54 -17 -55
-36 0 -5 5 -5 10 -2 6 3 10 2 10 -4 0 -5 -4 -13 -10 -16 -5 -3 -10 -11 -10
-16 0 -6 5 -7 10 -4 6 3 10 -4 10 -17 0 -17 -3 -19 -9 -9 -13 20 -31 4 -31
-27 0 -23 -4 -27 -29 -27 -16 -1 -27 3 -25 7 3 4 -3 8 -14 8 -14 0 -21 -12
-31 -49 -7 -28 -17 -51 -23 -53 -6 -2 -12 -20 -12 -40 -1 -21 -5 -34 -12 -31
-6 2 -19 -13 -29 -34 -55 -117 -243 -328 -385 -430 -81 -59 -169 -197 -185
-290 -6 -39 -9 -43 -36 -43 -33 0 -66 18 -122 67 -20 18 -43 33 -50 33 -6 0
-48 -17 -92 -38 -120 -58 -316 -126 -419 -146 -11 -2 -43 -10 -71 -16 -120
-29 -404 -19 -560 20 -67 17 -204 70 -212 83 -4 7 1 8 13 3 32 -12 153 -36
182 -36 17 1 -10 15 -73 39 -237 90 -391 198 -485 341 l-30 45 0 -60 c0 -54
-12 -97 -23 -85 -3 3 -14 25 -27 49 -32 64 -104 173 -177 270 -71 94 -142 232
-168 326 -41 150 -27 400 31 538 14 33 23 62 19 65 -3 3 -20 -9 -38 -26 -18
-18 -36 -32 -40 -32 -11 0 3 77 30 160 30 93 108 255 162 336 31 46 41 71 41
100 0 54 -25 165 -49 218 -16 37 -17 45 -5 50 22 8 45 -3 87 -42 20 -20 37
-32 37 -27 0 4 -12 38 -26 74 -25 62 -59 239 -49 250 3 2 17 -1 31 -8 15 -6
29 -9 32 -6 3 3 36 96 72 208 136 411 258 677 365 795 121 135 260 44 432
-283 29 -55 53 -103 53 -107 0 -5 -8 -8 -18 -8 -41 0 -125 -33 -155 -60 l-32
-29 55 21 c70 27 187 29 244 5 37 -17 42 -16 90 0 83 29 259 25 364 -9 88 -28
98 -17 20 23 l-38 19 21 52 c95 241 225 437 301 453 81 18 238 -173 381 -467
85 -173 123 -267 197 -489 29 -85 54 -156 56 -158 2 -3 15 6 29 19 14 13 28
20 32 17 12 -13 -25 -152 -61 -231 -20 -42 -36 -80 -36 -83 0 -3 22 15 50 41
36 34 57 46 79 46 l30 0 -24 -36 c-28 -41 -40 -83 -48 -161 -5 -46 -3 -56 24
-95 176 -252 268 -443 305 -635 14 -77 17 -229 5 -273 -6 -22 -12 -16 -54 60
l-46 85 -1 -103 c0 -84 -5 -118 -26 -180 -54 -163 -140 -281 -309 -424 -129
-110 -256 -242 -308 -320 -28 -42 -54 -75 -59 -72 -23 14 -20 87 9 189 3 11
-25 -13 -62 -53 -104 -112 -221 -184 -397 -243 -50 -17 -98 -33 -107 -35 -9
-2 -59 -15 -111 -29 l-95 -24 100 4 c62 2 138 13 200 29 111 28 275 104 345
160 25 20 48 36 52 36 3 0 9 -13 13 -28 7 -34 61 -102 80 -102 7 0 16 15 19
33 15 81 148 240 331 395 55 46 119 105 143 131 100 107 186 254 215 369 13
53 29 68 36 35 2 -10 12 -28 22 -41 l18 -23 20 43 c46 102 47 294 1 468 -7 25
-16 53 -21 62 -5 10 -9 24 -9 31 0 7 -9 30 -20 52 -11 22 -20 47 -20 56 0 10
-3 19 -7 21 -5 2 -28 43 -53 92 -25 50 -78 136 -117 193 -71 101 -72 105 -66
151 9 75 38 128 84 155 l41 25 -35 26 c-19 15 -49 29 -67 31 -18 2 -34 6 -36
8 -2 2 3 35 11 73 16 73 20 194 7 194 -4 0 -24 -11 -44 -25 -20 -14 -39 -22
-41 -17 -2 4 -19 52 -37 107 -18 55 -41 118 -50 140 -10 22 -35 83 -55 135
-88 226 -229 468 -342 586 -86 90 -125 109 -190 94z m-2076 -2352 c-2 -7 -10
-12 -16 -10 -8 1 -9 -7 -5 -25 4 -15 6 -32 5 -38 -1 -5 -5 -58 -9 -117 -4 -58
-9 -109 -12 -111 -3 -3 -4 36 -4 86 2 78 1 84 -5 37 l-8 -55 -1 60 c-2 73 7
137 19 129 5 -3 9 -1 9 5 0 5 -4 13 -10 16 -5 3 -10 11 -10 16 0 6 4 8 9 4 5
-3 12 -1 16 5 9 14 28 12 22 -2z m-437 -143 c11 -13 10 -14 -4 -9 -9 3 -16 10
-16 15 0 13 6 11 20 -6z m3907 -97 c-3 -8 -6 -5 -6 6 -1 11 2 17 5 13 3 -3 4
-12 1 -19z m-3893 -84 c3 -9 6 -23 6 -32 -1 -12 -5 -10 -15 8 -8 14 -14 28
-15 33 0 13 18 7 24 -9z m3605 -27 c0 -21 -1 -21 -9 -2 -12 28 -12 37 0 30 6
-3 10 -16 9 -28z m-3636 -2 c-7 -21 -13 -19 -13 6 0 11 4 18 10 14 5 -3 7 -12
3 -20z m465 -120 c-3 -3 -9 2 -12 12 -6 14 -5 15 5 6 7 -7 10 -15 7 -18z m366
-615 c-6 -5 -24 21 -24 34 0 6 6 1 14 -10 8 -10 12 -21 10 -24z m16 -20 c0 -5
-4 -10 -10 -10 -5 0 -10 5 -10 10 0 6 5 10 10 10 6 0 10 -4 10 -10z m145 -11
c11 -17 -1 -21 -15 -4 -8 9 -8 15 -2 15 6 0 14 -5 17 -11z"/>
<path d="M745 3765 c-96 -71 -261 -232 -344 -335 -170 -211 -316 -477 -386
-701 -34 -113 -9 -89 29 27 22 65 65 173 97 239 54 112 158 288 193 328 9 9
16 20 16 24 0 3 7 13 15 22 9 9 29 34 46 56 50 66 249 263 327 322 63 49 79
63 70 63 -2 0 -30 -20 -63 -45z"/>
<path d="M3177 3789 c7 -7 15 -10 18 -7 3 3 -2 9 -12 12 -14 6 -15 5 -6 -5z"/>
<path d="M3255 3731 c11 -13 28 -27 39 -33 29 -16 11 7 -27 33 l-32 23 20 -23z"/>
<path d="M3339 3656 c26 -28 31 -31 31 -17 0 5 -12 17 -27 26 l-28 18 24 -27z"/>
<path d="M3456 3538 c10 -13 31 -34 48 -47 l31 -25 -21 25 c-12 13 -30 34 -40
47 -10 12 -22 22 -27 22 -4 0 0 -10 9 -22z"/>
<path d="M3540 3454 c0 -7 78 -113 91 -124 3 -3 11 -15 18 -27 6 -13 16 -23
21 -23 9 0 -18 46 -48 80 -6 8 -28 35 -47 58 -19 24 -35 41 -35 36z"/>
<path d="M3680 3266 c0 -5 18 -38 41 -74 105 -167 181 -345 249 -587 19 -67
29 -89 29 -68 1 35 -15 100 -49 203 -28 82 -81 213 -90 220 -4 3 -12 21 -19
40 -7 19 -23 53 -36 75 -13 22 -38 65 -55 95 -34 61 -69 110 -70 96z"/>
<path d="M1668 2953 c12 -2 30 -2 40 0 9 3 -1 5 -23 4 -22 0 -30 -2 -17 -4z"/>
<path d="M1998 2953 c12 -2 30 -2 40 0 9 3 -1 5 -23 4 -22 0 -30 -2 -17 -4z"/>
<path d="M1578 2918 c-31 -25 -58 -83 -58 -125 0 -78 36 -149 119 -236 42 -44
104 -100 139 -125 74 -53 75 -52 180 32 210 168 278 342 170 441 l-32 30 22
-29 c42 -55 33 -64 -65 -63 -98 1 -142 -8 -160 -31 -7 -9 -13 -12 -13 -8 0 5
-6 3 -14 -3 -11 -9 -19 -9 -35 1 -12 7 -21 17 -21 23 0 12 -66 19 -162 19 -38
-1 -68 3 -68 9 0 5 -7 4 -15 -3 -26 -22 -18 15 11 49 27 33 28 39 2 19z"/>
<path d="M1803 2887 c21 -27 37 -58 37 -70 0 -15 3 -18 11 -10 12 12 -23 74
-61 108 -13 12 -8 0 13 -28z"/>
<path d="M1891 2895 c-17 -20 -31 -41 -31 -48 0 -7 6 -3 12 8 6 11 22 32 36
48 14 15 23 27 20 27 -3 0 -20 -16 -37 -35z"/>
<path d="M2053 2231 c-89 -55 -19 -187 106 -199 85 -8 149 45 137 112 -8 44
-31 65 -39 36 -6 -25 -29 -34 -62 -26 -20 5 -25 13 -25 39 0 18 5 38 12 45 21
21 -92 15 -129 -7z"/>
<path d="M1277 2234 c-4 -4 -4 -18 -1 -31 11 -44 -38 -72 -66 -38 -29 34 -42
-44 -15 -82 23 -33 86 -49 127 -33 42 17 66 38 84 72 20 39 1 86 -42 104 -35
15 -76 18 -87 8z"/>
<path d="M1465 1987 c-100 -38 -194 -113 -252 -198 -55 -83 -69 -246 -33 -378
27 -97 51 -142 104 -193 23 -24 59 -72 78 -108 29 -55 33 -70 25 -95 -17 -57
-12 -215 9 -267 48 -118 149 -188 284 -196 119 -7 198 24 248 98 23 34 24 40
18 157 l-7 122 35 15 c104 43 219 144 292 258 49 75 57 92 91 198 l23 75 -3
-62 c-2 -34 1 -60 5 -57 20 13 39 81 35 126 -4 43 -11 54 -103 152 -54 58
-101 101 -102 96 -5 -14 44 -96 85 -141 l35 -38 -17 -50 c-47 -142 -211 -304
-330 -327 -39 -7 -137 30 -235 88 -110 66 -113 69 -118 132 -4 48 -2 56 14 62
99 30 167 81 199 149 64 136 -7 232 -189 257 -82 11 -175 -6 -221 -39 -29 -21
-65 -89 -65 -124 0 -80 81 -191 165 -226 44 -18 45 -19 46 -65 1 -27 2 -53 3
-60 1 -13 -74 -74 -142 -115 -53 -32 -76 -27 -134 29 -63 62 -101 176 -101
308 -1 76 4 105 21 143 44 100 177 207 298 243 56 16 211 16 274 0 14 -4 3 5
-25 20 -43 24 -63 28 -150 31 -85 3 -109 0 -160 -20z m168 -766 c-55 -127 -73
-249 -53 -366 7 -41 17 -75 21 -75 5 0 9 42 9 93 0 50 7 121 14 157 14 64 59
175 75 185 5 2 49 -15 97 -40 49 -25 95 -45 103 -45 9 0 11 -5 5 -17 -5 -10
-9 -109 -10 -219 -1 -181 -3 -204 -20 -227 -46 -61 -163 -82 -267 -48 -147 49
-212 187 -173 371 27 126 108 270 153 270 8 0 12 4 9 9 -10 16 18 19 36 3 16
-13 16 -17 1 -51z"/>
<path d="M412 1520 c-18 -29 -15 -38 4 -12 9 13 14 25 12 27 -2 2 -9 -5 -16
-15z"/>
</g>
</svg>
